<?xml version="1.0" encoding="utf-8"?>
<!-- Generator: Adobe Illustrator 24.1.1, SVG Export Plug-In . SVG Version: 6.00 Build 0)  -->
<svg version="1.1" id="Ebene_1" xmlns="http://www.w3.org/2000/svg" xmlns:xlink="http://www.w3.org/1999/xlink" x="0px" y="0px"
	 viewBox="0 0 224.1 112.4" style="enable-background:new 0 0 224.1 112.4;" xml:space="preserve">
<style type="text/css">
	.st0{fill:#6081EE;}
	.st1{fill:#33467C;}
	.st2{fill:#EEEEEE;}
	.st3{fill:#C1C1C1;}
</style>
<path class="st0" d="M27.3,53.6C12.8,53.6,1,41.8,1,27.3S12.8,1,27.3,1s26.3,11.8,26.3,26.3C53.6,41.8,41.8,53.6,27.3,53.6z"/>
<path class="st1" d="M27.3,2c14,0,25.3,11.3,25.3,25.3S41.3,52.6,27.3,52.6S2,41.3,2,27.3l0,0C2,13.3,13.3,2,27.3,2 M27.3,0
	C12.2,0,0,12.2,0,27.3s12.2,27.3,27.3,27.3s27.3-12.2,27.3-27.3l0,0C54.6,12.2,42.4,0,27.3,0z"/>
<polygon class="st1" points="41.7,14.9 39.7,12.9 27.3,25.3 14.9,12.9 12.9,14.9 25.3,27.3 12.9,39.7 14.9,41.7 27.3,29.3 
	39.7,41.7 41.7,39.7 29.3,27.3 "/>
<path class="st0" d="M83.8,53.5c-14.5,0.1-26.3-11.7-26.4-26.2C57.3,12.8,69.1,1,83.6,0.9s26.3,11.7,26.4,26.2c0,0.1,0,0.1,0,0.2
	C109.9,41.7,98.2,53.4,83.8,53.5z"/>
<path class="st1" d="M83.8,2.1c14,0,25.3,11.3,25.3,25.3S97.8,52.7,83.8,52.7S58.5,41.4,58.5,27.4C58.5,13.4,69.8,2.1,83.8,2.1
	 M83.8,0.1C68.7,0,56.5,12.2,56.4,27.3c-0.1,15.1,12.1,27.3,27.2,27.4s27.3-12.1,27.4-27.2c0-0.1,0-0.1,0-0.2
	C110.9,12.3,98.8,0.2,83.8,0.1z"/>
<path class="st1" d="M83.8,8.4c-10.4,0-18.9,8.5-18.9,18.9s8.5,18.9,18.9,18.9s18.9-8.5,18.9-18.9C102.7,16.9,94.2,8.4,83.8,8.4z
	 M83.8,43.3c-8.8,0-16-7.2-16-16s7.2-16,16-16s16,7.2,16,16S92.6,43.3,83.8,43.3z"/>
<path class="st0" d="M140.3,54.1c-14.5,0-26.3-11.8-26.3-26.3s11.8-26.3,26.3-26.3s26.3,11.8,26.3,26.3
	C166.6,42.3,154.8,54.1,140.3,54.1z"/>
<path class="st1" d="M140.3,2.7c14,0,25.3,11.3,25.3,25.3s-11.3,25.3-25.3,25.3C126.3,53.3,115,42,115,28
	C115,14,126.3,2.7,140.3,2.7 M140.3,0.7C125.2,0.7,113,12.9,113,28s12.2,27.3,27.3,27.3s27.3-12.2,27.3-27.3
	C167.6,12.9,155.4,0.7,140.3,0.7z"/>
<path class="st1" d="M151.8,13.5H126v28.6h28.6V13.5H151.8z M151.8,39.4h-23v-23h23V39.4z"/>
<path class="st0" d="M196.8,54.8c-14.5,0-26.3-11.8-26.3-26.3c0-14.5,11.8-26.3,26.3-26.3c14.5,0,26.3,11.8,26.3,26.3
	C223.1,43,211.3,54.8,196.8,54.8z"/>
<path class="st1" d="M196.8,3.3c14,0,25.3,11.3,25.3,25.3s-11.3,25.3-25.3,25.3c-14,0-25.3-11.3-25.3-25.3
	C171.5,14.6,182.8,3.3,196.8,3.3 M196.8,1.3c-15.1,0-27.3,12.2-27.3,27.3s12.2,27.3,27.3,27.3s27.3-12.2,27.3-27.3
	C224.1,13.5,211.9,1.3,196.8,1.3z"/>
<path class="st1" d="M212.8,36.6L196.8,9l-16,27.6l-1.6,2.8h35.2L212.8,36.6z M196.8,36.6h-12.7l12.7-21.9l12.7,21.9H196.8z"/>
<path class="st2" d="M27.3,111.4C12.8,111.4,1,99.6,1,85.1s11.8-26.3,26.3-26.3s26.3,11.8,26.3,26.3
	C53.6,99.6,41.8,111.4,27.3,111.4z"/>
<path class="st3" d="M27.3,59.8c14,0,25.3,11.3,25.3,25.3s-11.3,25.3-25.3,25.3S2,99.1,2,85.1l0,0C2,71.1,13.3,59.8,27.3,59.8
	 M27.3,57.8C12.2,57.8,0,70,0,85.1s12.2,27.3,27.3,27.3s27.3-12.2,27.3-27.3l0,0C54.6,70,42.4,57.8,27.3,57.8z"/>
<polygon class="st1" points="41.7,72.7 39.7,70.7 27.3,83.1 14.9,70.7 12.9,72.7 25.3,85.1 12.9,97.5 14.9,99.5 27.3,87.1 
	39.7,99.5 41.7,97.5 29.3,85.1 "/>
<path class="st2" d="M83.8,111.2c-14.5,0-26.3-11.8-26.3-26.3s11.8-26.3,26.3-26.3s26.3,11.8,26.3,26.3
	C110.1,99.4,98.3,111.2,83.8,111.2z"/>
<path class="st3" d="M83.8,59.8c14,0,25.3,11.3,25.3,25.3s-11.3,25.3-25.3,25.3S58.5,99.1,58.5,85.1C58.5,71.1,69.8,59.8,83.8,59.8
	 M83.8,57.8c-15.1,0-27.3,12.2-27.3,27.3s12.2,27.3,27.3,27.3s27.3-12.2,27.3-27.3C111.1,70,98.9,57.8,83.8,57.8z"/>
<path class="st1" d="M83.8,66.1c-10.4,0-18.9,8.5-18.9,18.9c0,10.4,8.5,18.9,18.9,18.9c10.4,0,18.9-8.5,18.9-18.9c0,0,0,0,0,0
	C102.7,74.6,94.2,66.1,83.8,66.1z M83.8,101c-8.8,0-16-7.2-16-16s7.2-16,16-16s16,7.2,16,16S92.6,101,83.8,101z"/>
<path class="st2" d="M140.3,111.2c-14.5,0-26.3-11.8-26.3-26.3s11.8-26.3,26.3-26.3c14.5,0,26.3,11.8,26.3,26.3
	C166.6,99.4,154.8,111.2,140.3,111.2z"/>
<path class="st3" d="M140.3,59.8c14,0,25.3,11.3,25.3,25.3s-11.3,25.3-25.3,25.3c-14,0-25.3-11.3-25.3-25.3
	C115,71.1,126.3,59.8,140.3,59.8 M140.3,57.8C125.2,57.8,113,70,113,85.1s12.2,27.3,27.3,27.3s27.3-12.2,27.3-27.3
	C167.6,70,155.4,57.8,140.3,57.8z"/>
<path class="st1" d="M151.8,70.6H126v28.6h28.6V70.6H151.8z M151.8,96.5h-23v-23h23V96.5z"/>
<path class="st2" d="M196.8,111.3c-14.5,0-26.3-11.8-26.3-26.3c0-14.5,11.8-26.3,26.3-26.3c14.5,0,26.3,11.8,26.3,26.3
	C223.1,99.5,211.3,111.3,196.8,111.3z"/>
<path class="st3" d="M196.8,59.8c14,0,25.3,11.3,25.3,25.3s-11.3,25.3-25.3,25.3c-14,0-25.3-11.3-25.3-25.3
	C171.5,71.1,182.8,59.8,196.8,59.8 M196.8,57.8c-15.1,0-27.3,12.2-27.3,27.3s12.2,27.3,27.3,27.3s27.3-12.2,27.3-27.3
	C224.1,70,211.9,57.8,196.8,57.8z"/>
<path class="st1" d="M212.8,93l-16-27.6l-16,27.6l-1.6,2.8h35.2L212.8,93z M196.8,93h-12.7l12.7-21.9L209.5,93H196.8z"/>
</svg>
