<?xml version="1.0" encoding="utf-8"?>
<!-- Generator: Adobe Illustrator 24.1.1, SVG Export Plug-In . SVG Version: 6.00 Build 0)  -->
<svg version="1.1" id="Ebene_1" xmlns="http://www.w3.org/2000/svg" xmlns:xlink="http://www.w3.org/1999/xlink" x="0px" y="0px"
	 viewBox="0 0 286 94" style="enable-background:new 0 0 286 94;" xml:space="preserve">
<style type="text/css">
	.st0{fill:#6081EE;}
	.st1{fill:#33467C;}
	.st2{fill:#4B66B5;}
	.st3{fill:#EEEEEE;}
	.st4{fill:#EDEDED;}
	.st5{fill:url(#SVGID_1_);}
	.st6{fill:url(#SVGID_2_);}
	.st7{fill:url(#SVGID_3_);}
	.st8{fill:url(#SVGID_4_);}
	.st9{fill:url(#SVGID_5_);}
	.st10{fill:url(#SVGID_6_);}
	.st11{fill:url(#SVGID_7_);}
	.st12{fill:url(#SVGID_8_);}
</style>
<g id="Ebene_2_1_">
	<g id="Ebene_1-2">
		<g id="Layer_1">
			<path class="st0" d="M47,92.5C21.9,92.5,1.5,72.1,1.5,47S21.9,1.5,47,1.5S92.5,21.9,92.5,47S72.1,92.5,47,92.5z"/>
			<path class="st1" d="M47,3c24.3,0,44,19.7,44,44S71.3,91,47,91S3,71.3,3,47S22.7,3,47,3 M47,0C21,0,0,21.1,0.1,47
				s21.1,47,47,46.9s47-21.1,46.9-47C94,21,73,0,47,0L47,0z"/>
			<circle class="st2" cx="47" cy="47" r="27.3"/>
			<path class="st3" d="M239,92.5c-25.1,0-45.5-20.4-45.5-45.5S213.9,1.5,239,1.5s45.5,20.4,45.5,45.5S264.1,92.5,239,92.5z"/>
			<path class="st1" d="M239,3c24.3,0,44,19.7,44,44s-19.7,44-44,44s-44-19.7-44-44S214.7,3,239,3 M239,0c-26,0-47,21.1-46.9,47
				s21.1,47,47,46.9s47-21.1,46.9-47C286,21,265,0,239.1,0H239z"/>
			<path class="st3" d="M143,92.5c-25.1,0-45.5-20.4-45.5-45.5S117.9,1.5,143,1.5s45.5,20.4,45.5,45.5S168.1,92.5,143,92.5z"/>
			<path class="st1" d="M143,3c24.3,0,44,19.7,44,44s-19.7,44-44,44S99,71.3,99,47S118.7,3,143,3 M143,0c-26,0-47,21.1-46.9,47
				c0,26,21.1,47,47,46.9s47-21.1,46.9-47C190,21,169,0,143.1,0H143z"/>
		</g>
	</g>
</g>
<g>
	<path class="st4" d="M160.8,47c-5-3.5-10.7-6.1-16.1-9l0,0l-4-1.9c-5-2.3-10-4.2-14.1-7.8c-2.9-2.5-4.8-5.5-3.2-10
		c-0.6,0.6-0.8,0.8-1,1.1c-7.8,10.1-5.3,24.6,5.5,31.4c3.3,2.1,7.1,3.5,10.7,5.1c0.2,0.1,0.4,0.2,0.5,0.2c0,0,0,0,0,0l3.5,1.5
		c2.5,1,4.7,2,7,2.8c6.7,2.6,12.9,5.9,16.3,13c0.4-0.7,0.7-1.2,0.9-1.8C171.1,62.5,169,52.8,160.8,47z"/>
	<linearGradient id="SVGID_1_" gradientUnits="userSpaceOnUse" x1="148.3415" y1="57.9138" x2="177.0515" y2="77.6415">
		<stop  offset="0" style="stop-color:#6081EE"/>
		<stop  offset="1" style="stop-color:#33467C"/>
	</linearGradient>
	<path class="st5" d="M156.6,56.8c-5.7-4-12.1-7-18.4-10.3l0,0l-4.5-2.2c-5.5-2.5-11-4.6-15.6-8.5c0.9,5.8,4.2,11.3,9.7,14.7
		c3.3,2.1,7.1,3.5,10.7,5.1c0.2,0.1,0.4,0.2,0.5,0.2c0,0,0,0,0,0l3.5,1.5c2.5,1,4.7,2,7,2.8c6.7,2.6,12.9,5.9,16.3,13
		C165.7,67,162.6,61,156.6,56.8z"/>
	<path class="st0" d="M156.8,16.6L156.8,16.6c1.3,1.9,2.1,4.1,1.9,6.7c-0.2,2.9-1.9,5.1-4.6,5.9c-0.6,0.2-1.3,0.3-1.9,0.2
		c0.1,0.2,0.2,0.3,0.3,0.5c1.1,1.5,3,2.1,5,1.5c2.4-0.7,4-2.7,4.1-5.3C162,22,159.7,19.1,156.8,16.6z"/>
	<linearGradient id="SVGID_2_" gradientUnits="userSpaceOnUse" x1="154.0315" y1="27.7242" x2="158.4728" y2="18.8409">
		<stop  offset="0" style="stop-color:#6081EE"/>
		<stop  offset="1" style="stop-color:#33467C"/>
	</linearGradient>
	<path class="st6" d="M154.2,29.2c2.7-0.8,4.4-3,4.6-5.9c0.1-2.6-0.6-4.8-1.9-6.7c0.5,2.8-0.6,4.8-2.7,6.3c-0.6,0.4-1.1,1-1.5,1.5
		c-1.1,1.5-1.1,3.4-0.3,4.9C152.9,29.5,153.5,29.4,154.2,29.2z"/>
	<path class="st0" d="M151.5,44.2l-5.2-2.5c-6.6-3-13.3-5.5-18.7-10.3c-3.8-3.4-6.3-7.2-4.2-13.2c-0.6,0.6-0.8,0.8-1,1.1
		c-3.8,5-5.2,11-4.3,16.6c4.6,3.8,10.1,6,15.6,8.5l4.5,2.2l0,0c6.2,3.3,12.7,6.3,18.4,10.3c5.9,4.2,9.1,10.1,9.4,16.6c0,0,0,0,0,0
		c0.4-0.7,0.7-1.2,0.9-1.8c3.2-7,2.7-14.3-1.4-20C161,49,156.2,46.7,151.5,44.2L151.5,44.2z"/>
	<linearGradient id="SVGID_3_" gradientUnits="userSpaceOnUse" x1="152.9023" y1="41.7098" x2="116.1776" y2="19.5019">
		<stop  offset="0" style="stop-color:#6081EE"/>
		<stop  offset="1" style="stop-color:#33467C"/>
	</linearGradient>
	<path class="st7" d="M160.8,47c-5-3.5-10.7-6.1-16.1-9l0,0l-4-1.9c-5-2.3-10-4.2-14.1-7.8c-2.9-2.5-4.8-5.5-3.2-10
		c-2.1,6,0.4,9.9,4.2,13.2c5.4,4.8,12,7.3,18.7,10.3l5.2,2.5l0,0c4.7,2.5,9.5,4.8,14.1,7.4C164.3,49.9,162.7,48.3,160.8,47z"/>
	<path class="st0" d="M120.3,65.7c1.7-2.9,4.5-4.3,7.6-3.9c-0.5-1.3-1.6-2.2-3.1-2.6c-2.6-0.7-5,0.4-6.4,2.8
		c-2.2,3.8-1.2,7.5,0.4,11.2c0,0,0,0,0,0C118.4,70.7,118.8,68.2,120.3,65.7z"/>
	<linearGradient id="SVGID_4_" gradientUnits="userSpaceOnUse" x1="125.5605" y1="63.9341" x2="119.0458" y2="71.038">
		<stop  offset="0" style="stop-color:#6081EE"/>
		<stop  offset="1" style="stop-color:#33467C"/>
	</linearGradient>
	<path class="st8" d="M127.8,61.8c-3-0.4-5.8,0.9-7.6,3.9c-1.5,2.5-1.9,5-1.6,7.6c0.4-2.9,2.1-4.2,4.7-4.8c0.9-0.2,1.9-0.5,2.7-1
		c1.7-1,2.4-2.8,2.1-4.6C128.1,62.4,128,62.1,127.8,61.8z"/>
</g>
<g>
	<path class="st4" d="M256.8,47c-5-3.5-10.7-6.1-16.1-9l0,0l-4-1.9c-5-2.3-10-4.2-14.1-7.8c-2.9-2.5-4.8-5.5-3.2-10
		c-0.6,0.6-0.8,0.8-1,1.1c-7.8,10.1-5.3,24.6,5.5,31.4c3.3,2.1,7.1,3.5,10.7,5.1c0.2,0.1,0.4,0.2,0.5,0.2c0,0,0,0,0,0l3.5,1.5
		c2.5,1,4.7,2,7,2.8c6.7,2.6,12.9,5.9,16.3,13c0.4-0.7,0.7-1.2,0.9-1.8C267.1,62.5,265,52.8,256.8,47z"/>
	<linearGradient id="SVGID_5_" gradientUnits="userSpaceOnUse" x1="244.3415" y1="57.9138" x2="273.0515" y2="77.6415">
		<stop  offset="0" style="stop-color:#6081EE"/>
		<stop  offset="1" style="stop-color:#33467C"/>
	</linearGradient>
	<path class="st9" d="M252.6,56.8c-5.7-4-12.1-7-18.4-10.3l0,0l-4.5-2.2c-5.5-2.5-11-4.6-15.6-8.5c0.9,5.8,4.2,11.3,9.7,14.7
		c3.3,2.1,7.1,3.5,10.7,5.1c0.2,0.1,0.4,0.2,0.5,0.2c0,0,0,0,0,0l3.5,1.5c2.5,1,4.7,2,7,2.8c6.7,2.6,12.9,5.9,16.3,13
		C261.7,67,258.6,61,252.6,56.8z"/>
	<path class="st0" d="M252.8,16.6L252.8,16.6c1.3,1.9,2.1,4.1,1.9,6.7c-0.2,2.9-1.9,5.1-4.6,5.9c-0.6,0.2-1.3,0.3-1.9,0.2
		c0.1,0.2,0.2,0.3,0.3,0.5c1.1,1.5,3,2.1,5,1.5c2.4-0.7,4-2.7,4.1-5.3C258,22,255.7,19.1,252.8,16.6z"/>
	<linearGradient id="SVGID_6_" gradientUnits="userSpaceOnUse" x1="250.0315" y1="27.7242" x2="254.4728" y2="18.8409">
		<stop  offset="0" style="stop-color:#6081EE"/>
		<stop  offset="1" style="stop-color:#33467C"/>
	</linearGradient>
	<path class="st10" d="M250.2,29.2c2.7-0.8,4.4-3,4.6-5.9c0.1-2.6-0.6-4.8-1.9-6.7c0.5,2.8-0.6,4.8-2.7,6.3c-0.6,0.4-1.1,1-1.5,1.5
		c-1.1,1.5-1.1,3.4-0.3,4.9C248.9,29.5,249.5,29.4,250.2,29.2z"/>
	<path class="st0" d="M247.5,44.2l-5.2-2.5c-6.6-3-13.3-5.5-18.7-10.3c-3.8-3.4-6.3-7.2-4.2-13.2c-0.6,0.6-0.8,0.8-1,1.1
		c-3.8,5-5.2,11-4.3,16.6c4.6,3.8,10.1,6,15.6,8.5l4.5,2.2l0,0c6.2,3.3,12.7,6.3,18.4,10.3c5.9,4.2,9.1,10.1,9.4,16.6c0,0,0,0,0,0
		c0.4-0.7,0.7-1.2,0.9-1.8c3.2-7,2.7-14.3-1.4-20C257,49,252.2,46.7,247.5,44.2L247.5,44.2z"/>
	<linearGradient id="SVGID_7_" gradientUnits="userSpaceOnUse" x1="248.9023" y1="41.7098" x2="212.1776" y2="19.5019">
		<stop  offset="0" style="stop-color:#6081EE"/>
		<stop  offset="1" style="stop-color:#33467C"/>
	</linearGradient>
	<path class="st11" d="M256.8,47c-5-3.5-10.7-6.1-16.1-9l0,0l-4-1.9c-5-2.3-10-4.2-14.1-7.8c-2.9-2.5-4.8-5.5-3.2-10
		c-2.1,6,0.4,9.9,4.2,13.2c5.4,4.8,12,7.3,18.7,10.3l5.2,2.5l0,0c4.7,2.5,9.5,4.8,14.1,7.4C260.3,49.9,258.7,48.3,256.8,47z"/>
	<path class="st0" d="M216.3,65.7c1.7-2.9,4.5-4.3,7.6-3.9c-0.5-1.3-1.6-2.2-3.1-2.6c-2.6-0.7-5,0.4-6.4,2.8
		c-2.2,3.8-1.2,7.5,0.4,11.2c0,0,0,0,0,0C214.4,70.7,214.8,68.2,216.3,65.7z"/>
	<linearGradient id="SVGID_8_" gradientUnits="userSpaceOnUse" x1="221.5605" y1="63.9341" x2="215.0458" y2="71.038">
		<stop  offset="0" style="stop-color:#6081EE"/>
		<stop  offset="1" style="stop-color:#33467C"/>
	</linearGradient>
	<path class="st12" d="M223.8,61.8c-3-0.4-5.8,0.9-7.6,3.9c-1.5,2.5-1.9,5-1.6,7.6c0.4-2.9,2.1-4.2,4.7-4.8c0.9-0.2,1.9-0.5,2.7-1
		c1.7-1,2.4-2.8,2.1-4.6C224.1,62.4,224,62.1,223.8,61.8z"/>
</g>
</svg>
