<?xml version="1.0" encoding="utf-8"?>
<!-- Generator: Adobe Illustrator 24.1.1, SVG Export Plug-In . SVG Version: 6.00 Build 0)  -->
<svg version="1.1" id="Ebene_1" xmlns="http://www.w3.org/2000/svg" xmlns:xlink="http://www.w3.org/1999/xlink" x="0px" y="0px"
	 viewBox="0 0 200 90.8" style="enable-background:new 0 0 200 90.8;" xml:space="preserve">
<style type="text/css">
	.st0{fill:#EEEEEE;}
	.st1{fill:#D6D6D6;}
	.st2{fill:#E5D19A;}
	.st3{fill:#33467C;}
</style>
<path class="st0" d="M200,90.8c0,0-32.7-3.2-50.6-3.2S101,90,101,90s3.1-44.7,4.8-52s7.7-21.3,16.9-27.9S134.7,0,145.5,0
	s25.4,6.4,34.6,21.4S200,90.8,200,90.8z"/>
<path class="st1" d="M101.5,83.2c0,0,26.1-4.4,49-4.4s47.9,4.4,47.9,4.4c1,4.7,1.6,7.6,1.6,7.6s-32.7-3.2-50.6-3.2S101,90,101,90
	S101.2,87.3,101.5,83.2z"/>
<path class="st2" d="M151.5,65.7l-3.2,2.6c-1.2,1.2-1.9,2.8-2,4.5h9.8v-2.6h-6.2c0.6-0.8,1.3-1.4,2.1-1.9c1-0.6,1.9-1.3,2.7-2.1
	c0.8-0.9,1.3-2.1,1.3-3.3c0-1.3-0.5-2.5-1.4-3.3c-1-0.8-2.2-1.2-3.5-1.2c-3.1,0-4.7,1.7-4.7,5h2.7c0-1.8,0.7-2.7,2.1-2.7
	c1-0.1,1.9,0.6,2,1.6c0,0.2,0,0.3,0,0.5C153.3,63.9,152.7,64.8,151.5,65.7z"/>
<path class="st2" d="M134,67.2h3c1.5,0,2.3,0.6,2.4,1.9s0.2,2.5,0.3,3.8h3.3v-0.4c-0.5-0.2-0.7-0.7-0.7-1.5c0-0.3,0-0.5,0.1-0.8
	v-0.7c0.2-1.4-0.6-2.8-1.8-3.5c1.4-0.5,2.3-1.9,2.2-3.4c0.1-1.2-0.4-2.3-1.3-3c-0.9-0.7-2-1.1-3.2-1H131v14.3h3V67.2z M134,61h3.7
	c1.4,0,2.1,0.6,2.1,1.9s-0.8,1.9-2.3,1.9H134V61z"/>
<path class="st0" d="M0.1,90.8c0,0,32.7-3.2,50.6-3.2S99,90,99,90s-3.1-44.7-4.8-52s-7.7-21.3-16.9-27.9S65.4,0,54.6,0
	S29.2,6.4,20,21.4S0.1,90.8,0.1,90.8z"/>
<path class="st1" d="M98.5,83.2c0,0-26.1-4.4-49-4.4S1.6,83.2,1.6,83.2c-1,4.7-1.6,7.6-1.6,7.6s32.7-3.2,50.6-3.2S99,90,99,90
	S98.9,87.3,98.5,83.2z"/>
<path class="st2" d="M64.6,65.7l-3.2,2.6c-1.2,1.2-1.9,2.8-2,4.5h9.7v-2.6h-6.2c0.6-0.8,1.3-1.4,2.1-1.9c1-0.6,1.9-1.3,2.7-2.1
	c0.8-0.9,1.3-2.1,1.3-3.3c0-1.3-0.5-2.5-1.4-3.3c-1-0.8-2.2-1.2-3.5-1.2c-3.1,0-4.7,1.7-4.7,5h2.7c0-1.8,0.7-2.7,2.1-2.7
	c1-0.1,1.9,0.6,2,1.6c0,0.2,0,0.3,0,0.5C66.3,64,65.6,65.1,64.6,65.7z"/>
<polygon class="st2" points="56.1,70.2 49,70.2 49,58.5 46,58.5 46,72.8 56.1,72.8 "/>
<g>
	<path class="st3" d="M64.6,65.7l-3.2,2.6c-1.2,1.2-1.9,2.8-2,4.5h9.7v-2.6h-6.2c0.6-0.8,1.3-1.4,2.1-1.9c1-0.6,1.9-1.3,2.7-2.1
		c0.8-0.9,1.3-2.1,1.3-3.3c0-1.3-0.5-2.5-1.4-3.3c-1-0.8-2.2-1.2-3.5-1.2c-3.1,0-4.7,1.7-4.7,5h2.7c0-1.8,0.7-2.7,2.1-2.7
		c1-0.1,1.9,0.6,2,1.6c0,0.2,0,0.3,0,0.5C66.3,64,65.6,65.1,64.6,65.7z"/>
	<polygon class="st3" points="56.1,70.2 49,70.2 49,58.5 46,58.5 46,72.8 56.1,72.8 	"/>
</g>
<g>
	<path class="st3" d="M151.5,65.7l-3.2,2.6c-1.2,1.2-1.9,2.8-2,4.5h9.8v-2.6h-6.2c0.6-0.8,1.3-1.4,2.1-1.9c1-0.6,1.9-1.3,2.7-2.1
		c0.8-0.9,1.3-2.1,1.3-3.3c0-1.3-0.5-2.5-1.4-3.3c-1-0.8-2.2-1.2-3.5-1.2c-3.1,0-4.7,1.7-4.7,5h2.7c0-1.8,0.7-2.7,2.1-2.7
		c1-0.1,1.9,0.6,2,1.6c0,0.2,0,0.3,0,0.5C153.3,63.9,152.7,64.8,151.5,65.7z"/>
	<path class="st3" d="M134,67.2h3c1.5,0,2.3,0.6,2.4,1.9s0.2,2.5,0.3,3.8h3.3v-0.4c-0.5-0.2-0.7-0.7-0.7-1.5c0-0.3,0-0.5,0.1-0.8
		v-0.7c0.2-1.4-0.6-2.8-1.8-3.5c1.4-0.5,2.3-1.9,2.2-3.4c0.1-1.2-0.4-2.3-1.3-3c-0.9-0.7-2-1.1-3.2-1H131v14.3h3V67.2z M134,61h3.7
		c1.4,0,2.1,0.6,2.1,1.9s-0.8,1.9-2.3,1.9H134V61z"/>
</g>
</svg>
